{
  "accessors": [
    {
      "bufferView": 2,
      "componentType": 5126,
      "count": 6401,
      "max": [
        1.756704330444336,
        5.219704627990723,
        6.086241722106934
      ],
      "min": [
        -1.756704330444336,
        -1.756704330444336,
        5.974698543548584
      ],
      "type": "VEC3"
    },
    {
      "bufferView": 2,
      "byteOffset": 76812,
      "componentType": 5126,
      "count": 6401,
      "max": [
        1.0,
        0.9992302656173706,
        1.0
      ],
      "min": [
        -1.0,
        -0.9992291331291199,
        -1.0
      ],
      "type": "VEC3"
    },
    {
      "bufferView": 1,
      "componentType": 5126,
      "count": 6401,
      "max": [
        0.8467532396316528,
        0.9829902648925781
      ],
      "min": [
        0.18874980509281158,
        0.007470037322491407
      ],
      "type": "VEC2"
    },
    {
      "bufferView": 0,
      "componentType": 5125,
      "count": 27882,
      "type": "SCALAR"
    }
  ],
  "asset": {
    "extras": {
      "author": "supahot (https://sketchfab.com/supahot)",
      "license": "CC-BY-4.0 (http://creativecommons.org/licenses/by/4.0/)",
      "source": "https://sketchfab.com/3d-models/prayer-carpet-deee7f51fb1045c49aba9eb5f364d226",
      "title": "Prayer carpet"
    },
    "generator": "Sketchfab-15.22.0",
    "version": "2.0"
  },
  "bufferViews": [
    {
      "buffer": 0,
      "byteLength": 111528,
      "name": "floatBufferViews",
      "target": 34963
    },
    {
      "buffer": 0,
      "byteLength": 51208,
      "byteOffset": 111528,
      "byteStride": 8,
      "name": "floatBufferViews",
      "target": 34962
    },
    {
      "buffer": 0,
      "byteLength": 153624,
      "byteOffset": 162736,
      "byteStride": 12,
      "name": "floatBufferViews",
      "target": 34962
    }
  ],
  "buffers": [
    {
      "byteLength": 316360,
      "uri": "scene.bin"
    }
  ],
  "images": [
    {
      "uri": "textures/Material.002_baseColor.jpeg"
    }
  ],
  "materials": [
    {
      "doubleSided": true,
      "name": "Material.002",
      "pbrMetallicRoughness": {
        "baseColorTexture": {
          "index": 0
        }
      }
    }
  ],
  "meshes": [
    {
      "name": "Plane.005_Material.002_0",
      "primitives": [
        {
          "attributes": {
            "NORMAL": 1,
            "POSITION": 0,
            "TEXCOORD_0": 2
          },
          "indices": 3,
          "material": 0,
          "mode": 4
        }
      ]
    }
  ],
  "nodes": [
    {
      "children": [
        1
      ],
      "matrix": [
        1.0,
        0.0,
        0.0,
        0.0,
        0.0,
        2.220446049250313e-16,
        -1.0,
        0.0,
        0.0,
        1.0,
        2.220446049250313e-16,
        0.0,
        0.0,
        0.0,
        0.0,
        1.0
      ],
      "name": "Sketchfab_model"
    },
    {
      "children": [
        2
      ],
      "matrix": [
        0.009999999776482582,
        0.0,
        0.0,
        0.0,
        0.0,
        0.0,
        0.009999999776482582,
        0.0,
        0.0,
        -0.009999999776482582,
        0.0,
        0.0,
        0.0,
        0.0,
        0.0,
        1.0
      ],
      "name": "f2850d89e1524dc38e4aedb606491065.fbx"
    },
    {
      "children": [
        3
      ],
      "name": "RootNode"
    },
    {
      "children": [
        4
      ],
      "matrix": [
        -99.99999999999245,
        4.497547490658462e-12,
        -3.894143777553012e-05,
        0.0,
        3.894143777552961e-05,
        3.139164790333382e-05,
        -99.9999999999875,
        0.0,
        7.726811545622946e-12,
        -99.99999999999507,
        -3.139164792553828e-05,
        0.0,
        391.8144836425781,
        1149.013916015625,
        -411.578369140625,
        1.0
      ],
      "name": "Plane.005"
    },
    {
      "mesh": 0,
      "name": "Plane.005_Material.002_0"
    }
  ],
  "samplers": [
    {
      "magFilter": 9729,
      "minFilter": 9987,
      "wrapS": 10497,
      "wrapT": 10497
    }
  ],
  "scene": 0,
  "scenes": [
    {
      "name": "Sketchfab_Scene",
      "nodes": [
        0
      ]
    }
  ],
  "textures": [
    {
      "sampler": 0,
      "source": 0
    }
  ]
}
