{
  "accessors": [
    {
      "bufferView": 2,
      "componentType": 5126,
      "count": 21200,
      "max": [
        0.30099400877952576,
        0.27512800693511963,
        0.35902100801467896
      ],
      "min": [
        -0.476175993680954,
        -0.24807900190353394,
        -0.08081500232219696
      ],
      "type": "VEC3"
    },
    {
      "bufferView": 2,
      "byteOffset": 254400,
      "componentType": 5126,
      "count": 21200,
      "max": [
        0.87461918592453,
        1.0,
        0.87461918592453
      ],
      "min": [
        -0.87461918592453,
        -1.0,
        -0.87461918592453
      ],
      "type": "VEC3"
    },
    {
      "bufferView": 1,
      "componentType": 5126,
      "count": 21200,
      "max": [
        0.9866350293159485,
        0.9732699990272522
      ],
      "min": [
        0.5133649706840515,
        0.026729999110102654
      ],
      "type": "VEC2"
    },
    {
      "bufferView": 0,
      "componentType": 5125,
      "count": 114432,
      "type": "SCALAR"
    },
    {
      "bufferView": 2,
      "byteOffset": 508800,
      "componentType": 5126,
      "count": 21200,
      "max": [
        0.4707989990711212,
        0.27512800693511963,
        0.3525179922580719
      ],
      "min": [
        -0.3063710033893585,
        -0.24807900190353394,
        -0.08731800317764282
      ],
      "type": "VEC3"
    },
    {
      "bufferView": 2,
      "byteOffset": 763200,
      "componentType": 5126,
      "count": 21200,
      "max": [
        0.87461918592453,
        1.0,
        0.87461918592453
      ],
      "min": [
        -0.87461918592453,
        -1.0,
        -0.87461918592453
      ],
      "type": "VEC3"
    },
    {
      "bufferView": 1,
      "byteOffset": 169600,
      "componentType": 5126,
      "count": 21200,
      "max": [
        0.9684889912605286,
        0.9369770288467407
      ],
      "min": [
        0.5315110087394714,
        0.06302300095558167
      ],
      "type": "VEC2"
    },
    {
      "bufferView": 0,
      "byteOffset": 457728,
      "componentType": 5125,
      "count": 114432,
      "type": "SCALAR"
    },
    {
      "bufferView": 2,
      "byteOffset": 1017600,
      "componentType": 5126,
      "count": 48,
      "max": [
        0.3424549996852875,
        0.22265900671482086,
        0.3200269937515259
      ],
      "min": [
        -0.33405598998069763,
        -0.1968120038509369,
        0.11779399961233139
      ],
      "type": "VEC3"
    },
    {
      "bufferView": 2,
      "byteOffset": 1018176,
      "componentType": 5126,
      "count": 48,
      "max": [
        1.0,
        1.0,
        0.8878120183944702
      ],
      "min": [
        -0.4859061539173126,
        -1.0,
        -1.0
      ],
      "type": "VEC3"
    },
    {
      "bufferView": 1,
      "byteOffset": 339200,
      "componentType": 5126,
      "count": 48,
      "max": [
        0.9999799728393555,
        1.0
      ],
      "min": [
        0.0,
        0.0
      ],
      "type": "VEC2"
    },
    {
      "bufferView": 0,
      "byteOffset": 915456,
      "componentType": 5125,
      "count": 78,
      "type": "SCALAR"
    },
    {
      "bufferView": 2,
      "byteOffset": 1018752,
      "componentType": 5126,
      "count": 24,
      "max": [
        0.3424549996852875,
        0.22265900671482086,
        0.3200269937515259
      ],
      "min": [
        -0.33405598998069763,
        -0.1968120038509369,
        0.11917400360107422
      ],
      "type": "VEC3"
    },
    {
      "bufferView": 2,
      "byteOffset": 1019040,
      "componentType": 5126,
      "count": 24,
      "max": [
        0.5660024881362915,
        1.0,
        0.8244036436080933
      ],
      "min": [
        -0.5660024881362915,
        -1.0,
        -0.0
      ],
      "type": "VEC3"
    },
    {
      "bufferView": 1,
      "byteOffset": 339584,
      "componentType": 5126,
      "count": 24,
      "max": [
        0.7793279886245728,
        0.2825919985771179
      ],
      "min": [
        0.07735300064086914,
        0.027473000809550285
      ],
      "type": "VEC2"
    },
    {
      "bufferView": 0,
      "byteOffset": 915768,
      "componentType": 5125,
      "count": 48,
      "type": "SCALAR"
    },
    {
      "bufferView": 2,
      "byteOffset": 1019328,
      "componentType": 5126,
      "count": 4,
      "max": [
        0.00419900007545948,
        0.22265900671482086,
        0.3200269937515259
      ],
      "min": [
        -0.2968910038471222,
        -0.1968120038509369,
        0.1639530062675476
      ],
      "type": "VEC3"
    },
    {
      "bufferView": 2,
      "byteOffset": 1019376,
      "componentType": 5126,
      "count": 4,
      "max": [
        0.4602062702178955,
        0.0,
        0.8878120183944702
      ],
      "min": [
        0.4602062702178955,
        0.0,
        0.8878120183944702
      ],
      "type": "VEC3"
    },
    {
      "bufferView": 1,
      "byteOffset": 339776,
      "componentType": 5126,
      "count": 4,
      "max": [
        1.0008599758148193,
        0.999904990196228
      ],
      "min": [
        9.500000305706635e-05,
        9.500000305706635e-05
      ],
      "type": "VEC2"
    },
    {
      "bufferView": 0,
      "byteOffset": 915960,
      "componentType": 5125,
      "count": 6,
      "type": "SCALAR"
    },
    {
      "bufferView": 2,
      "byteOffset": 1019424,
      "componentType": 5126,
      "count": 92,
      "max": [
        0.358364999294281,
        0.24737100303173065,
        0.30516698956489563
      ],
      "min": [
        -0.34996598958969116,
        -0.22437100112438202,
        0.10926000028848648
      ],
      "type": "VEC3"
    },
    {
      "bufferView": 2,
      "byteOffset": 1020528,
      "componentType": 5126,
      "count": 92,
      "max": [
        0.9996541142463684,
        0.9989367723464966,
        0.9999979734420776
      ],
      "min": [
        -0.9996541142463684,
        -0.9989367723464966,
        -0.9999979734420776
      ],
      "type": "VEC3"
    },
    {
      "bufferView": 1,
      "byteOffset": 339808,
      "componentType": 5126,
      "count": 92,
      "max": [
        0.9229850172996521,
        1.0
      ],
      "min": [
        0.0,
        0.0
      ],
      "type": "VEC2"
    },
    {
      "bufferView": 0,
      "byteOffset": 915984,
      "componentType": 5125,
      "count": 144,
      "type": "SCALAR"
    },
    {
      "bufferView": 2,
      "byteOffset": 1021632,
      "componentType": 5126,
      "count": 24,
      "max": [
        0.026775000616908073,
        -0.17709100246429443,
        0.11559099704027176
      ],
      "min": [
        -0.018377000465989113,
        -0.2157289981842041,
        0.11544600129127502
      ],
      "type": "VEC3"
    },
    {
      "bufferView": 2,
      "byteOffset": 1021920,
      "componentType": 5126,
      "count": 24,
      "max": [
        1.0,
        1.0,
        1.0
      ],
      "min": [
        -1.0,
        -1.0,
        -1.0
      ],
      "type": "VEC3"
    },
    {
      "bufferView": 1,
      "byteOffset": 340544,
      "componentType": 5126,
      "count": 24,
      "max": [
        0.5195760130882263,
        0.5699729919433594
      ],
      "min": [
        0.4804239869117737,
        0.5308210253715515
      ],
      "type": "VEC2"
    },
    {
      "bufferView": 0,
      "byteOffset": 916560,
      "componentType": 5125,
      "count": 36,
      "type": "SCALAR"
    }
  ],
  "asset": {
    "extras": {
      "author": "ikhsanime321 (https://sketchfab.com/ikhsanime321)",
      "license": "CC-BY-4.0 (http://creativecommons.org/licenses/by/4.0/)",
      "source": "https://sketchfab.com/3d-models/al-quran-1-bca760d9ba3a493688d44f63c5b2c118",
      "title": "Al Quran 1"
    },
    "generator": "Sketchfab-15.19.0",
    "version": "2.0"
  },
  "bufferViews": [
    {
      "buffer": 0,
      "byteLength": 916704,
      "name": "floatBufferViews",
      "target": 34963
    },
    {
      "buffer": 0,
      "byteLength": 340736,
      "byteOffset": 916704,
      "byteStride": 8,
      "name": "floatBufferViews",
      "target": 34962
    },
    {
      "buffer": 0,
      "byteLength": 1022208,
      "byteOffset": 1257440,
      "byteStride": 12,
      "name": "floatBufferViews",
      "target": 34962
    }
  ],
  "buffers": [
    {
      "byteLength": 2279648,
      "uri": "scene.bin"
    }
  ],
  "extensionsUsed": [
    "KHR_materials_unlit"
  ],
  "images": [
    {
      "uri": "textures/Kayu_baseColor.jpeg"
    },
    {
      "uri": "textures/Material.001_baseColor.png"
    },
    {
      "uri": "textures/Material.002_baseColor.jpeg"
    },
    {
      "uri": "textures/Material.004_baseColor.png"
    },
    {
      "uri": "textures/Material.005_baseColor.jpeg"
    }
  ],
  "materials": [
    {
      "doubleSided": true,
      "extensions": {
        "KHR_materials_unlit": {}
      },
      "name": "Kayu",
      "pbrMetallicRoughness": {
        "baseColorTexture": {
          "index": 0
        },
        "metallicFactor": 0.0
      }
    },
    {
      "doubleSided": true,
      "extensions": {
        "KHR_materials_unlit": {}
      },
      "name": "Kayu.001",
      "pbrMetallicRoughness": {
        "baseColorTexture": {
          "index": 0
        },
        "metallicFactor": 0.0
      }
    },
    {
      "doubleSided": true,
      "extensions": {
        "KHR_materials_unlit": {}
      },
      "name": "Material.001",
      "pbrMetallicRoughness": {
        "baseColorTexture": {
          "index": 1
        },
        "metallicFactor": 0.0
      }
    },
    {
      "doubleSided": true,
      "extensions": {
        "KHR_materials_unlit": {}
      },
      "name": "Material.002",
      "pbrMetallicRoughness": {
        "baseColorTexture": {
          "index": 2
        },
        "metallicFactor": 0.0
      }
    },
    {
      "doubleSided": true,
      "extensions": {
        "KHR_materials_unlit": {}
      },
      "name": "Material.004",
      "pbrMetallicRoughness": {
        "baseColorTexture": {
          "index": 3
        },
        "metallicFactor": 0.0
      }
    },
    {
      "doubleSided": true,
      "extensions": {
        "KHR_materials_unlit": {}
      },
      "name": "Material.005",
      "pbrMetallicRoughness": {
        "baseColorTexture": {
          "index": 4
        },
        "metallicFactor": 0.0
      }
    },
    {
      "doubleSided": true,
      "extensions": {
        "KHR_materials_unlit": {}
      },
      "name": "Material.007",
      "pbrMetallicRoughness": {
        "baseColorTexture": {
          "index": 2
        },
        "metallicFactor": 0.0
      }
    }
  ],
  "meshes": [
    {
      "name": "Object_0",
      "primitives": [
        {
          "attributes": {
            "NORMAL": 1,
            "POSITION": 0,
            "TEXCOORD_0": 2
          },
          "indices": 3,
          "material": 0,
          "mode": 4
        }
      ]
    },
    {
      "name": "Object_1",
      "primitives": [
        {
          "attributes": {
            "NORMAL": 5,
            "POSITION": 4,
            "TEXCOORD_0": 6
          },
          "indices": 7,
          "material": 1,
          "mode": 4
        }
      ]
    },
    {
      "name": "Object_2",
      "primitives": [
        {
          "attributes": {
            "NORMAL": 9,
            "POSITION": 8,
            "TEXCOORD_0": 10
          },
          "indices": 11,
          "material": 2,
          "mode": 4
        }
      ]
    },
    {
      "name": "Object_3",
      "primitives": [
        {
          "attributes": {
            "NORMAL": 13,
            "POSITION": 12,
            "TEXCOORD_0": 14
          },
          "indices": 15,
          "material": 3,
          "mode": 4
        }
      ]
    },
    {
      "name": "Object_4",
      "primitives": [
        {
          "attributes": {
            "NORMAL": 17,
            "POSITION": 16,
            "TEXCOORD_0": 18
          },
          "indices": 19,
          "material": 4,
          "mode": 4
        }
      ]
    },
    {
      "name": "Object_5",
      "primitives": [
        {
          "attributes": {
            "NORMAL": 21,
            "POSITION": 20,
            "TEXCOORD_0": 22
          },
          "indices": 23,
          "material": 5,
          "mode": 4
        }
      ]
    },
    {
      "name": "Object_6",
      "primitives": [
        {
          "attributes": {
            "NORMAL": 25,
            "POSITION": 24,
            "TEXCOORD_0": 26
          },
          "indices": 27,
          "material": 6,
          "mode": 4
        }
      ]
    }
  ],
  "nodes": [
    {
      "children": [
        1
      ],
      "matrix": [
        1.0,
        0.0,
        0.0,
        0.0,
        0.0,
        2.220446049250313e-16,
        -1.0,
        0.0,
        0.0,
        1.0,
        2.220446049250313e-16,
        0.0,
        0.0,
        0.0,
        0.0,
        1.0
      ],
      "name": "Sketchfab_model"
    },
    {
      "children": [
        2,
        3,
        4,
        5,
        6,
        7,
        8
      ],
      "name": "Al Quran 1 .obj.cleaner.materialmerger.gles"
    },
    {
      "mesh": 0,
      "name": "Object_2"
    },
    {
      "mesh": 1,
      "name": "Object_3"
    },
    {
      "mesh": 2,
      "name": "Object_4"
    },
    {
      "mesh": 3,
      "name": "Object_5"
    },
    {
      "mesh": 4,
      "name": "Object_6"
    },
    {
      "mesh": 5,
      "name": "Object_7"
    },
    {
      "mesh": 6,
      "name": "Object_8"
    }
  ],
  "samplers": [
    {
      "magFilter": 9729,
      "minFilter": 9987,
      "wrapS": 10497,
      "wrapT": 10497
    }
  ],
  "scene": 0,
  "scenes": [
    {
      "name": "Sketchfab_Scene",
      "nodes": [
        0
      ]
    }
  ],
  "textures": [
    {
      "sampler": 0,
      "source": 0
    },
    {
      "sampler": 0,
      "source": 1
    },
    {
      "sampler": 0,
      "source": 2
    },
    {
      "sampler": 0,
      "source": 3
    },
    {
      "sampler": 0,
      "source": 4
    }
  ]
}
